%TF.GenerationSoftware,KiCad,Pcbnew,8.0.5*%
%TF.CreationDate,2024-12-24T12:14:21+01:00*%
%TF.ProjectId,stmbl_5.0,73746d62-6c5f-4352-9e30-2e6b69636164,1.0*%
%TF.SameCoordinates,Original*%
%TF.FileFunction,Paste,Top*%
%TF.FilePolarity,Positive*%
%FSLAX46Y46*%
G04 Gerber Fmt 4.6, Leading zero omitted, Abs format (unit mm)*
G04 Created by KiCad (PCBNEW 8.0.5) date 2024-12-24 12:14:21*
%MOMM*%
%LPD*%
G01*
G04 APERTURE LIST*
G04 Aperture macros list*
%AMRoundRect*
0 Rectangle with rounded corners*
0 $1 Rounding radius*
0 $2 $3 $4 $5 $6 $7 $8 $9 X,Y pos of 4 corners*
0 Add a 4 corners polygon primitive as box body*
4,1,4,$2,$3,$4,$5,$6,$7,$8,$9,$2,$3,0*
0 Add four circle primitives for the rounded corners*
1,1,$1+$1,$2,$3*
1,1,$1+$1,$4,$5*
1,1,$1+$1,$6,$7*
1,1,$1+$1,$8,$9*
0 Add four rect primitives between the rounded corners*
20,1,$1+$1,$2,$3,$4,$5,0*
20,1,$1+$1,$4,$5,$6,$7,0*
20,1,$1+$1,$6,$7,$8,$9,0*
20,1,$1+$1,$8,$9,$2,$3,0*%
G04 Aperture macros list end*
%ADD10RoundRect,0.200000X0.200000X0.600000X-0.200000X0.600000X-0.200000X-0.600000X0.200000X-0.600000X0*%
%ADD11RoundRect,0.400000X1.000000X0.400000X-1.000000X0.400000X-1.000000X-0.400000X1.000000X-0.400000X0*%
%ADD12RoundRect,0.200000X0.400000X0.200000X-0.400000X0.200000X-0.400000X-0.200000X0.400000X-0.200000X0*%
%ADD13RoundRect,0.200000X-0.200000X0.400000X-0.200000X-0.400000X0.200000X-0.400000X0.200000X0.400000X0*%
%ADD14RoundRect,0.350000X-0.650000X-0.350000X0.650000X-0.350000X0.650000X0.350000X-0.650000X0.350000X0*%
%ADD15RoundRect,0.100000X0.100000X0.400000X-0.100000X0.400000X-0.100000X-0.400000X0.100000X-0.400000X0*%
%ADD16RoundRect,0.100000X-0.100000X-0.400000X0.100000X-0.400000X0.100000X0.400000X-0.100000X0.400000X0*%
%ADD17RoundRect,0.100000X-0.400000X0.100000X-0.400000X-0.100000X0.400000X-0.100000X0.400000X0.100000X0*%
%ADD18RoundRect,0.200000X0.800000X0.200000X-0.800000X0.200000X-0.800000X-0.200000X0.800000X-0.200000X0*%
%ADD19RoundRect,0.200000X0.200000X-0.800000X0.200000X0.800000X-0.200000X0.800000X-0.200000X-0.800000X0*%
%ADD20RoundRect,0.350000X0.350000X-0.650000X0.350000X0.650000X-0.350000X0.650000X-0.350000X-0.650000X0*%
%ADD21RoundRect,0.118000X0.202000X-0.118000X0.202000X0.118000X-0.202000X0.118000X-0.202000X-0.118000X0*%
%ADD22RoundRect,0.118000X0.118000X0.202000X-0.118000X0.202000X-0.118000X-0.202000X0.118000X-0.202000X0*%
%ADD23RoundRect,0.118000X-0.202000X0.118000X-0.202000X-0.118000X0.202000X-0.118000X0.202000X0.118000X0*%
%ADD24RoundRect,0.118000X-0.118000X-0.202000X0.118000X-0.202000X0.118000X0.202000X-0.118000X0.202000X0*%
%ADD25RoundRect,0.200000X-0.200000X-0.440000X0.200000X-0.440000X0.200000X0.440000X-0.200000X0.440000X0*%
%ADD26RoundRect,0.200000X0.440000X-0.200000X0.440000X0.200000X-0.440000X0.200000X-0.440000X-0.200000X0*%
%ADD27RoundRect,0.560000X-0.640000X-0.560000X0.640000X-0.560000X0.640000X0.560000X-0.640000X0.560000X0*%
%ADD28RoundRect,0.120000X-0.680000X0.120000X-0.680000X-0.120000X0.680000X-0.120000X0.680000X0.120000X0*%
%ADD29RoundRect,0.150000X-0.150000X0.250000X-0.150000X-0.250000X0.150000X-0.250000X0.150000X0.250000X0*%
%ADD30RoundRect,0.150000X0.250000X0.150000X-0.250000X0.150000X-0.250000X-0.150000X0.250000X-0.150000X0*%
%ADD31RoundRect,0.350000X-0.350000X0.650000X-0.350000X-0.650000X0.350000X-0.650000X0.350000X0.650000X0*%
%ADD32RoundRect,0.200000X-0.200000X-0.400000X0.200000X-0.400000X0.200000X0.400000X-0.200000X0.400000X0*%
%ADD33RoundRect,0.200000X0.400000X-0.200000X0.400000X0.200000X-0.400000X0.200000X-0.400000X-0.200000X0*%
%ADD34RoundRect,0.200000X-0.400000X0.200000X-0.400000X-0.200000X0.400000X-0.200000X0.400000X0.200000X0*%
%ADD35RoundRect,0.150000X0.150000X-0.250000X0.150000X0.250000X-0.150000X0.250000X-0.150000X-0.250000X0*%
%ADD36RoundRect,0.200000X0.300000X-0.200000X0.300000X0.200000X-0.300000X0.200000X-0.300000X-0.200000X0*%
%ADD37RoundRect,0.200000X0.200000X0.300000X-0.200000X0.300000X-0.200000X-0.300000X0.200000X-0.300000X0*%
%ADD38RoundRect,0.200000X-0.200000X-0.300000X0.200000X-0.300000X0.200000X0.300000X-0.200000X0.300000X0*%
%ADD39RoundRect,0.200000X-0.300000X0.200000X-0.300000X-0.200000X0.300000X-0.200000X0.300000X0.200000X0*%
%ADD40RoundRect,0.300000X0.300000X0.980000X-0.300000X0.980000X-0.300000X-0.980000X0.300000X-0.980000X0*%
%ADD41RoundRect,0.095000X-0.095000X0.305000X-0.095000X-0.305000X0.095000X-0.305000X0.095000X0.305000X0*%
%ADD42RoundRect,0.095000X0.095000X-0.305000X0.095000X0.305000X-0.095000X0.305000X-0.095000X-0.305000X0*%
%ADD43RoundRect,0.095000X0.305000X0.095000X-0.305000X0.095000X-0.305000X-0.095000X0.305000X-0.095000X0*%
%ADD44RoundRect,0.120000X0.120000X-0.470000X0.120000X0.470000X-0.120000X0.470000X-0.120000X-0.470000X0*%
%ADD45RoundRect,0.120000X-0.120000X0.470000X-0.120000X-0.470000X0.120000X-0.470000X0.120000X0.470000X0*%
%ADD46R,0.480000X0.920000*%
%ADD47R,0.240000X0.920000*%
%ADD48O,0.800000X1.680000*%
%ADD49O,0.800000X1.440000*%
%ADD50RoundRect,0.300000X0.500000X-0.300000X0.500000X0.300000X-0.500000X0.300000X-0.500000X-0.300000X0*%
%ADD51RoundRect,0.350000X-0.212132X-0.707107X0.707107X0.212132X0.212132X0.707107X-0.707107X-0.212132X0*%
%ADD52RoundRect,0.050000X-0.470000X-0.050000X0.470000X-0.050000X0.470000X0.050000X-0.470000X0.050000X0*%
%ADD53RoundRect,0.050000X0.050000X-0.470000X0.050000X0.470000X-0.050000X0.470000X-0.050000X-0.470000X0*%
%ADD54RoundRect,0.050000X-0.550000X-0.050000X0.550000X-0.050000X0.550000X0.050000X-0.550000X0.050000X0*%
%ADD55RoundRect,0.050000X0.050000X-0.550000X0.050000X0.550000X-0.050000X0.550000X-0.050000X-0.550000X0*%
%ADD56RoundRect,0.120000X0.470000X0.120000X-0.470000X0.120000X-0.470000X-0.120000X0.470000X-0.120000X0*%
%ADD57R,0.920000X0.480000*%
%ADD58R,0.920000X0.240000*%
%ADD59O,1.680000X0.800000*%
%ADD60O,1.440000X0.800000*%
%ADD61RoundRect,0.200000X-0.800000X-0.200000X0.800000X-0.200000X0.800000X0.200000X-0.800000X0.200000X0*%
G04 APERTURE END LIST*
D10*
%TO.C,U2*%
X20310000Y2930000D03*
X18060000Y2930000D03*
D11*
X18060000Y-3570000D03*
D10*
X15810000Y2930000D03*
%TD*%
D12*
%TO.C,Y1*%
X66801031Y-25998474D03*
X62801031Y-28498474D03*
X62801031Y-25998474D03*
X66801031Y-28498474D03*
%TD*%
D13*
%TO.C,Y2*%
X26560000Y17430000D03*
X29060000Y13430000D03*
X26560000Y13430000D03*
X29060000Y17430000D03*
%TD*%
D14*
%TO.C,D11*%
X90551031Y-49498474D03*
X94551031Y-49498474D03*
%TD*%
D15*
%TO.C,U3*%
X47705000Y-4425000D03*
X46435000Y-4425000D03*
X45165000Y-4425000D03*
X43895000Y-4425000D03*
X43895000Y-9925000D03*
X45165000Y-9925000D03*
X46435000Y-9925000D03*
X47705000Y-9925000D03*
%TD*%
D16*
%TO.C,U6*%
X61905000Y18680000D03*
X63175000Y18680000D03*
X64445000Y18680000D03*
X65715000Y18680000D03*
X65715000Y24180000D03*
X64445000Y24180000D03*
X63175000Y24180000D03*
X61905000Y24180000D03*
%TD*%
%TO.C,U7*%
X61905000Y2180000D03*
X63175000Y2180000D03*
X64445000Y2180000D03*
X65715000Y2180000D03*
X65715000Y7680000D03*
X64445000Y7680000D03*
X63175000Y7680000D03*
X61905000Y7680000D03*
%TD*%
D17*
%TO.C,U8*%
X75310000Y33335000D03*
X75310000Y32065000D03*
X75310000Y30795000D03*
X75310000Y29525000D03*
X80810000Y29525000D03*
X80810000Y30795000D03*
X80810000Y32065000D03*
X80810000Y33335000D03*
%TD*%
%TO.C,U9*%
X75310000Y38835000D03*
X75310000Y37565000D03*
X75310000Y36295000D03*
X75310000Y35025000D03*
X80810000Y35025000D03*
X80810000Y36295000D03*
X80810000Y37565000D03*
X80810000Y38835000D03*
%TD*%
%TO.C,U10*%
X63810000Y37835000D03*
X63810000Y36565000D03*
X63810000Y35295000D03*
X63810000Y34025000D03*
X69310000Y34025000D03*
X69310000Y35295000D03*
X69310000Y36565000D03*
X69310000Y37835000D03*
%TD*%
%TO.C,U11*%
X75310000Y44335000D03*
X75310000Y43065000D03*
X75310000Y41795000D03*
X75310000Y40525000D03*
X80810000Y40525000D03*
X80810000Y41795000D03*
X80810000Y43065000D03*
X80810000Y44335000D03*
%TD*%
%TO.C,U14*%
X75310000Y16835000D03*
X75310000Y15565000D03*
X75310000Y14295000D03*
X75310000Y13025000D03*
X80810000Y13025000D03*
X80810000Y14295000D03*
X80810000Y15565000D03*
X80810000Y16835000D03*
%TD*%
%TO.C,U15*%
X75310000Y335000D03*
X75310000Y-935000D03*
X75310000Y-2205000D03*
X75310000Y-3475000D03*
X80810000Y-3475000D03*
X80810000Y-2205000D03*
X80810000Y-935000D03*
X80810000Y335000D03*
%TD*%
%TO.C,U16*%
X75310000Y5835000D03*
X75310000Y4565000D03*
X75310000Y3295000D03*
X75310000Y2025000D03*
X80810000Y2025000D03*
X80810000Y3295000D03*
X80810000Y4565000D03*
X80810000Y5835000D03*
%TD*%
%TO.C,U17*%
X75310000Y22335000D03*
X75310000Y21065000D03*
X75310000Y19795000D03*
X75310000Y18525000D03*
X80810000Y18525000D03*
X80810000Y19795000D03*
X80810000Y21065000D03*
X80810000Y22335000D03*
%TD*%
%TO.C,U18*%
X75310000Y27835000D03*
X75310000Y26565000D03*
X75310000Y25295000D03*
X75310000Y24025000D03*
X80810000Y24025000D03*
X80810000Y25295000D03*
X80810000Y26565000D03*
X80810000Y27835000D03*
%TD*%
%TO.C,U19*%
X75310000Y11335000D03*
X75310000Y10065000D03*
X75310000Y8795000D03*
X75310000Y7525000D03*
X80810000Y7525000D03*
X80810000Y8795000D03*
X80810000Y10065000D03*
X80810000Y11335000D03*
%TD*%
D18*
%TO.C,L4*%
X91641031Y-33210974D03*
X91641031Y-30810974D03*
%TD*%
D19*
%TO.C,L6*%
X14997500Y25750000D03*
X17397500Y25750000D03*
%TD*%
D20*
%TO.C,D6*%
X94961031Y-32280974D03*
X94961031Y-28280974D03*
%TD*%
D14*
%TO.C,D12*%
X15880000Y22410000D03*
X19880000Y22410000D03*
%TD*%
D21*
%TO.C,C12*%
X68810000Y5930000D03*
X68810000Y7430000D03*
%TD*%
%TO.C,C13*%
X68810000Y22430000D03*
X68810000Y23930000D03*
%TD*%
%TO.C,C24*%
X65310000Y9430000D03*
X65310000Y10930000D03*
%TD*%
%TO.C,C25*%
X65310000Y25930000D03*
X65310000Y27430000D03*
%TD*%
D22*
%TO.C,C26*%
X64310000Y430000D03*
X62810000Y430000D03*
%TD*%
%TO.C,C27*%
X64310000Y16930000D03*
X62810000Y16930000D03*
%TD*%
D23*
%TO.C,C36*%
X61810000Y27430000D03*
X61810000Y25930000D03*
%TD*%
%TO.C,C37*%
X61810000Y10930000D03*
X61810000Y9430000D03*
%TD*%
%TO.C,C46*%
X38060000Y4680000D03*
X38060000Y3180000D03*
%TD*%
%TO.C,C47*%
X40560000Y4680000D03*
X40560000Y3180000D03*
%TD*%
%TO.C,C48*%
X41810000Y4680000D03*
X41810000Y3180000D03*
%TD*%
%TO.C,C49*%
X39310000Y4680000D03*
X39310000Y3180000D03*
%TD*%
D21*
%TO.C,C71*%
X82810000Y430000D03*
X82810000Y1930000D03*
%TD*%
%TO.C,C72*%
X82810000Y16930000D03*
X82810000Y18430000D03*
%TD*%
%TO.C,C73*%
X82810000Y5930000D03*
X82810000Y7430000D03*
%TD*%
%TO.C,C74*%
X82810000Y22430000D03*
X82810000Y23930000D03*
%TD*%
%TO.C,C75*%
X82810000Y27930000D03*
X82810000Y29430000D03*
%TD*%
%TO.C,C76*%
X82810000Y11430000D03*
X82810000Y12930000D03*
%TD*%
D23*
%TO.C,C113*%
X70310000Y21180000D03*
X70310000Y19680000D03*
%TD*%
D22*
%TO.C,C114*%
X92810000Y26430000D03*
X91310000Y26430000D03*
%TD*%
%TO.C,C115*%
X89560000Y28680000D03*
X88060000Y28680000D03*
%TD*%
D23*
%TO.C,C116*%
X70310000Y4680000D03*
X70310000Y3180000D03*
%TD*%
D22*
%TO.C,C117*%
X92810000Y9930000D03*
X91310000Y9930000D03*
%TD*%
%TO.C,C118*%
X89560000Y12180000D03*
X88060000Y12180000D03*
%TD*%
D24*
%TO.C,C125*%
X29060000Y8430000D03*
X30560000Y8430000D03*
%TD*%
%TO.C,C126*%
X29060000Y7180000D03*
X30560000Y7180000D03*
%TD*%
D22*
%TO.C,C2*%
X70301031Y-24748474D03*
X68801031Y-24748474D03*
%TD*%
D24*
%TO.C,C5*%
X68801031Y-26248474D03*
X70301031Y-26248474D03*
%TD*%
D23*
%TO.C,C6*%
X61880000Y-30640000D03*
X61880000Y-32140000D03*
%TD*%
D22*
%TO.C,C7*%
X70301031Y-23498474D03*
X68801031Y-23498474D03*
%TD*%
%TO.C,C9*%
X80701031Y-16868474D03*
X79201031Y-16868474D03*
%TD*%
D23*
%TO.C,C10*%
X67801031Y-30498474D03*
X67801031Y-31998474D03*
%TD*%
D24*
%TO.C,C11*%
X83051031Y-32248474D03*
X84551031Y-32248474D03*
%TD*%
D23*
%TO.C,C15*%
X89121031Y-31998474D03*
X89121031Y-33498474D03*
%TD*%
D24*
%TO.C,C16*%
X56310000Y25180000D03*
X57810000Y25180000D03*
%TD*%
D23*
%TO.C,C17*%
X92810000Y43580000D03*
X92810000Y42080000D03*
%TD*%
D22*
%TO.C,C19*%
X47710000Y-2770000D03*
X46210000Y-2770000D03*
%TD*%
D23*
%TO.C,C20*%
X74301031Y-33998474D03*
X74301031Y-35498474D03*
%TD*%
%TO.C,C23*%
X73051031Y-33998474D03*
X73051031Y-35498474D03*
%TD*%
D24*
%TO.C,C29*%
X31810000Y13930000D03*
X33310000Y13930000D03*
%TD*%
%TO.C,C30*%
X46210000Y-11470000D03*
X47710000Y-11470000D03*
%TD*%
%TO.C,C31*%
X27060000Y19430000D03*
X28560000Y19430000D03*
%TD*%
D21*
%TO.C,C32*%
X30560000Y15430000D03*
X30560000Y16930000D03*
%TD*%
D23*
%TO.C,C33*%
X75551031Y-33998474D03*
X75551031Y-35498474D03*
%TD*%
D24*
%TO.C,C39*%
X83051031Y-33498474D03*
X84551031Y-33498474D03*
%TD*%
%TO.C,C41*%
X76801031Y-45748474D03*
X78301031Y-45748474D03*
%TD*%
%TO.C,C42*%
X53240000Y-40460000D03*
X54740000Y-40460000D03*
%TD*%
%TO.C,C43*%
X51250000Y-38130000D03*
X52750000Y-38130000D03*
%TD*%
%TO.C,C44*%
X51210000Y-32960000D03*
X52710000Y-32960000D03*
%TD*%
D23*
%TO.C,C45*%
X76801031Y-33998474D03*
X76801031Y-35498474D03*
%TD*%
D24*
%TO.C,C52*%
X29060000Y11180000D03*
X30560000Y11180000D03*
%TD*%
D21*
%TO.C,C53*%
X82810000Y33430000D03*
X82810000Y34930000D03*
%TD*%
%TO.C,C54*%
X82810000Y38930000D03*
X82810000Y40430000D03*
%TD*%
%TO.C,C55*%
X71310000Y37930000D03*
X71310000Y39430000D03*
%TD*%
%TO.C,C56*%
X82810000Y44430000D03*
X82810000Y45930000D03*
%TD*%
D23*
%TO.C,C57*%
X71551031Y-31498474D03*
X71551031Y-32998474D03*
%TD*%
%TO.C,C58*%
X87211031Y-34718474D03*
X87211031Y-36218474D03*
%TD*%
D24*
%TO.C,C59*%
X29060000Y9930000D03*
X30560000Y9930000D03*
%TD*%
D21*
%TO.C,C60*%
X89951031Y-27458474D03*
X89951031Y-25958474D03*
%TD*%
%TO.C,C63*%
X57201031Y-17348474D03*
X57201031Y-15848474D03*
%TD*%
D22*
%TO.C,C64*%
X33310000Y7180000D03*
X31810000Y7180000D03*
%TD*%
D24*
%TO.C,C65*%
X31810000Y9930000D03*
X33310000Y9930000D03*
%TD*%
D23*
%TO.C,C66*%
X38060000Y41680000D03*
X38060000Y40180000D03*
%TD*%
D24*
%TO.C,C67*%
X29060000Y5930000D03*
X30560000Y5930000D03*
%TD*%
%TO.C,C77*%
X31810000Y16930000D03*
X33310000Y16930000D03*
%TD*%
D21*
%TO.C,C78*%
X79301031Y-35498474D03*
X79301031Y-33998474D03*
%TD*%
D22*
%TO.C,C79*%
X84300000Y-24160000D03*
X82800000Y-24160000D03*
%TD*%
D24*
%TO.C,C80*%
X31810000Y12680000D03*
X33310000Y12680000D03*
%TD*%
D22*
%TO.C,C81*%
X33310000Y5930000D03*
X31810000Y5930000D03*
%TD*%
D23*
%TO.C,C82*%
X72201031Y-19820000D03*
X72201031Y-21320000D03*
%TD*%
D24*
%TO.C,C83*%
X68801031Y-29248474D03*
X70301031Y-29248474D03*
%TD*%
D21*
%TO.C,C84*%
X36810000Y3180000D03*
X36810000Y4680000D03*
%TD*%
%TO.C,C85*%
X49310000Y4180000D03*
X49310000Y5680000D03*
%TD*%
D22*
%TO.C,C86*%
X54810000Y21930000D03*
X53310000Y21930000D03*
%TD*%
D23*
%TO.C,C87*%
X36560000Y26680000D03*
X36560000Y25180000D03*
%TD*%
%TO.C,C88*%
X48060000Y5680000D03*
X48060000Y4180000D03*
%TD*%
D24*
%TO.C,C89*%
X31810000Y19180000D03*
X33310000Y19180000D03*
%TD*%
%TO.C,C90*%
X53310000Y20430000D03*
X54810000Y20430000D03*
%TD*%
D21*
%TO.C,C96*%
X15060000Y5180000D03*
X15060000Y6680000D03*
%TD*%
D23*
%TO.C,C98*%
X29070000Y31390000D03*
X29070000Y29890000D03*
%TD*%
D21*
%TO.C,C99*%
X17560000Y5180000D03*
X17560000Y6680000D03*
%TD*%
D24*
%TO.C,C100*%
X21310000Y42680000D03*
X22810000Y42680000D03*
%TD*%
D23*
%TO.C,C101*%
X12850000Y9420000D03*
X12850000Y7920000D03*
%TD*%
D21*
%TO.C,C102*%
X14580000Y30950000D03*
X14580000Y32450000D03*
%TD*%
D23*
%TO.C,C104*%
X14580000Y29780000D03*
X14580000Y28280000D03*
%TD*%
D22*
%TO.C,C106*%
X17290000Y28010000D03*
X15790000Y28010000D03*
%TD*%
D24*
%TO.C,C108*%
X19980000Y28150000D03*
X21480000Y28150000D03*
%TD*%
%TO.C,C112*%
X88060000Y45180000D03*
X89560000Y45180000D03*
%TD*%
%TO.C,C119*%
X31810000Y11180000D03*
X33310000Y11180000D03*
%TD*%
D22*
%TO.C,C127*%
X84551031Y-28498474D03*
X83051031Y-28498474D03*
%TD*%
D24*
%TO.C,C128*%
X83451031Y-19368474D03*
X84951031Y-19368474D03*
%TD*%
D21*
%TO.C,C129*%
X58684364Y-17348474D03*
X58684364Y-15848474D03*
%TD*%
D23*
%TO.C,L1*%
X69051031Y-30498474D03*
X69051031Y-31998474D03*
%TD*%
D22*
%TO.C,L3*%
X33310000Y8680000D03*
X31810000Y8680000D03*
%TD*%
D21*
%TO.C,L7*%
X84310000Y44430000D03*
X84310000Y45930000D03*
%TD*%
D23*
%TO.C,L8*%
X70310000Y18430000D03*
X70310000Y16930000D03*
%TD*%
%TO.C,L9*%
X84310000Y29430000D03*
X84310000Y27930000D03*
%TD*%
%TO.C,L10*%
X70310000Y1930000D03*
X70310000Y430000D03*
%TD*%
%TO.C,L11*%
X84310000Y12930000D03*
X84310000Y11430000D03*
%TD*%
D21*
%TO.C,R2*%
X74590000Y-21310000D03*
X74590000Y-19810000D03*
%TD*%
D24*
%TO.C,R3*%
X88060000Y13680000D03*
X89560000Y13680000D03*
%TD*%
%TO.C,R4*%
X88060000Y-3070000D03*
X89560000Y-3070000D03*
%TD*%
%TO.C,R5*%
X88060000Y8430000D03*
X89560000Y8430000D03*
%TD*%
%TO.C,R6*%
X88060000Y24930000D03*
X89560000Y24930000D03*
%TD*%
D23*
%TO.C,R7*%
X9640000Y-47560000D03*
X9640000Y-49060000D03*
%TD*%
D24*
%TO.C,R8*%
X90301031Y-20078474D03*
X91801031Y-20078474D03*
%TD*%
%TO.C,R9*%
X9310000Y12680000D03*
X10810000Y12680000D03*
%TD*%
%TO.C,R10*%
X9310000Y19680000D03*
X10810000Y19680000D03*
%TD*%
%TO.C,R11*%
X9310000Y26680000D03*
X10810000Y26680000D03*
%TD*%
%TO.C,R12*%
X9310000Y14180000D03*
X10810000Y14180000D03*
%TD*%
%TO.C,R13*%
X9310000Y21180000D03*
X10810000Y21180000D03*
%TD*%
%TO.C,R14*%
X9310000Y28180000D03*
X10810000Y28180000D03*
%TD*%
D23*
%TO.C,R15*%
X87403031Y-25938474D03*
X87403031Y-27438474D03*
%TD*%
D24*
%TO.C,R16*%
X85051031Y-50748474D03*
X86551031Y-50748474D03*
%TD*%
%TO.C,R17*%
X88060000Y30180000D03*
X89560000Y30180000D03*
%TD*%
%TO.C,R18*%
X88060000Y41680000D03*
X89560000Y41680000D03*
%TD*%
D21*
%TO.C,R19*%
X86101031Y-29008474D03*
X86101031Y-27508474D03*
%TD*%
D22*
%TO.C,R21*%
X88901031Y-28968474D03*
X87401031Y-28968474D03*
%TD*%
D21*
%TO.C,R23*%
X68810000Y3180000D03*
X68810000Y4680000D03*
%TD*%
%TO.C,R24*%
X68810000Y19680000D03*
X68810000Y21180000D03*
%TD*%
%TO.C,R25*%
X70310000Y25180000D03*
X70310000Y26680000D03*
%TD*%
%TO.C,R26*%
X70310000Y8680000D03*
X70310000Y10180000D03*
%TD*%
D22*
%TO.C,R29*%
X36341031Y-33138474D03*
X34841031Y-33138474D03*
%TD*%
D21*
%TO.C,R30*%
X1100000Y-48110000D03*
X1100000Y-46610000D03*
%TD*%
D23*
%TO.C,R31*%
X91310000Y43680000D03*
X91310000Y42180000D03*
%TD*%
D22*
%TO.C,R34*%
X36351031Y-28378474D03*
X34851031Y-28378474D03*
%TD*%
D24*
%TO.C,R36*%
X66810000Y25930000D03*
X68310000Y25930000D03*
%TD*%
%TO.C,R37*%
X66810000Y9430000D03*
X68310000Y9430000D03*
%TD*%
%TO.C,R38*%
X66810000Y10930000D03*
X68310000Y10930000D03*
%TD*%
%TO.C,R39*%
X66810000Y27430000D03*
X68310000Y27430000D03*
%TD*%
D22*
%TO.C,R40*%
X35060000Y33680000D03*
X33560000Y33680000D03*
%TD*%
D24*
%TO.C,R41*%
X65810000Y430000D03*
X67310000Y430000D03*
%TD*%
%TO.C,R42*%
X65810000Y16930000D03*
X67310000Y16930000D03*
%TD*%
%TO.C,R43*%
X63810000Y-1070000D03*
X65310000Y-1070000D03*
%TD*%
%TO.C,R44*%
X63810000Y15430000D03*
X65310000Y15430000D03*
%TD*%
D22*
%TO.C,R45*%
X35060000Y32180000D03*
X33560000Y32180000D03*
%TD*%
D23*
%TO.C,R46*%
X66101031Y-32748474D03*
X66101031Y-34248474D03*
%TD*%
%TO.C,R47*%
X67310000Y21180000D03*
X67310000Y19680000D03*
%TD*%
%TO.C,R48*%
X67310000Y4680000D03*
X67310000Y3180000D03*
%TD*%
D21*
%TO.C,R49*%
X67310000Y5930000D03*
X67310000Y7430000D03*
%TD*%
%TO.C,R50*%
X67310000Y22430000D03*
X67310000Y23930000D03*
%TD*%
D22*
%TO.C,R53*%
X36361031Y-23668474D03*
X34861031Y-23668474D03*
%TD*%
D24*
%TO.C,R54*%
X61060000Y-1070000D03*
X62560000Y-1070000D03*
%TD*%
%TO.C,R55*%
X61060000Y15430000D03*
X62560000Y15430000D03*
%TD*%
D21*
%TO.C,R56*%
X63310000Y25930000D03*
X63310000Y27430000D03*
%TD*%
%TO.C,R57*%
X63310000Y9430000D03*
X63310000Y10930000D03*
%TD*%
%TO.C,R58*%
X66101031Y-31498474D03*
X66101031Y-29998474D03*
%TD*%
D22*
%TO.C,R59*%
X17330000Y32580000D03*
X15830000Y32580000D03*
%TD*%
D23*
%TO.C,R61*%
X40060000Y29180000D03*
X40060000Y27680000D03*
%TD*%
D22*
%TO.C,R62*%
X96560000Y33430000D03*
X95060000Y33430000D03*
%TD*%
D21*
%TO.C,R63*%
X82810000Y30680000D03*
X82810000Y32180000D03*
%TD*%
D22*
%TO.C,R64*%
X89560000Y34430000D03*
X88060000Y34430000D03*
%TD*%
%TO.C,R65*%
X96560000Y35430000D03*
X95060000Y35430000D03*
%TD*%
D21*
%TO.C,R66*%
X82810000Y36180000D03*
X82810000Y37680000D03*
%TD*%
D22*
%TO.C,R67*%
X89560000Y38430000D03*
X88060000Y38430000D03*
%TD*%
%TO.C,R68*%
X96560000Y37430000D03*
X95060000Y37430000D03*
%TD*%
D21*
%TO.C,R69*%
X71310000Y35180000D03*
X71310000Y36680000D03*
%TD*%
D22*
%TO.C,R70*%
X89560000Y36430000D03*
X88060000Y36430000D03*
%TD*%
%TO.C,R71*%
X96560000Y39430000D03*
X95060000Y39430000D03*
%TD*%
D21*
%TO.C,R72*%
X82810000Y41680000D03*
X82810000Y43180000D03*
%TD*%
D22*
%TO.C,R73*%
X89560000Y40430000D03*
X88060000Y40430000D03*
%TD*%
D21*
%TO.C,R75*%
X1100000Y-45510000D03*
X1100000Y-44010000D03*
%TD*%
%TO.C,R79*%
X67401031Y-40148474D03*
X67401031Y-38648474D03*
%TD*%
D23*
%TO.C,R84*%
X64851031Y-32748474D03*
X64851031Y-34248474D03*
%TD*%
%TO.C,R86*%
X60310000Y18180000D03*
X60310000Y16680000D03*
%TD*%
%TO.C,R87*%
X60310000Y1680000D03*
X60310000Y180000D03*
%TD*%
D21*
%TO.C,R88*%
X60310000Y8430000D03*
X60310000Y9930000D03*
%TD*%
%TO.C,R89*%
X60310000Y24930000D03*
X60310000Y26430000D03*
%TD*%
%TO.C,R90*%
X64851031Y-31498474D03*
X64851031Y-29998474D03*
%TD*%
D24*
%TO.C,R91*%
X82301031Y-50748474D03*
X83801031Y-50748474D03*
%TD*%
D22*
%TO.C,R92*%
X86551031Y-49498474D03*
X85051031Y-49498474D03*
%TD*%
D21*
%TO.C,R93*%
X60310000Y19430000D03*
X60310000Y20930000D03*
%TD*%
%TO.C,R94*%
X60310000Y2930000D03*
X60310000Y4430000D03*
%TD*%
D23*
%TO.C,R95*%
X60310000Y23680000D03*
X60310000Y22180000D03*
%TD*%
%TO.C,R96*%
X60310000Y7180000D03*
X60310000Y5680000D03*
%TD*%
D22*
%TO.C,R97*%
X19870000Y32550000D03*
X18370000Y32550000D03*
%TD*%
D24*
%TO.C,R98*%
X13810000Y37430000D03*
X15310000Y37430000D03*
%TD*%
%TO.C,R99*%
X16560000Y37430000D03*
X18060000Y37430000D03*
%TD*%
D23*
%TO.C,R100*%
X63601031Y-32748474D03*
X63601031Y-34248474D03*
%TD*%
%TO.C,R101*%
X73310000Y30680000D03*
X73310000Y29180000D03*
%TD*%
%TO.C,R102*%
X73310000Y36180000D03*
X73310000Y34680000D03*
%TD*%
%TO.C,R103*%
X61810000Y35180000D03*
X61810000Y33680000D03*
%TD*%
%TO.C,R104*%
X73310000Y41680000D03*
X73310000Y40180000D03*
%TD*%
D24*
%TO.C,R105*%
X13810000Y35930000D03*
X15310000Y35930000D03*
%TD*%
%TO.C,R106*%
X23310000Y37430000D03*
X24810000Y37430000D03*
%TD*%
D21*
%TO.C,R107*%
X63601031Y-31498474D03*
X63601031Y-29998474D03*
%TD*%
D24*
%TO.C,R108*%
X26060000Y37430000D03*
X27560000Y37430000D03*
%TD*%
D21*
%TO.C,R109*%
X82810000Y14180000D03*
X82810000Y15680000D03*
%TD*%
%TO.C,R110*%
X82810000Y-2320000D03*
X82810000Y-820000D03*
%TD*%
%TO.C,R111*%
X82810000Y19680000D03*
X82810000Y21180000D03*
%TD*%
%TO.C,R112*%
X82810000Y3180000D03*
X82810000Y4680000D03*
%TD*%
%TO.C,R113*%
X82810000Y8680000D03*
X82810000Y10180000D03*
%TD*%
%TO.C,R114*%
X82810000Y25180000D03*
X82810000Y26680000D03*
%TD*%
D24*
%TO.C,R115*%
X83051031Y-30948474D03*
X84551031Y-30948474D03*
%TD*%
D23*
%TO.C,R116*%
X23690000Y6620000D03*
X23690000Y5120000D03*
%TD*%
%TO.C,R117*%
X23690000Y3870000D03*
X23690000Y2370000D03*
%TD*%
D22*
%TO.C,R119*%
X27560000Y35930000D03*
X26060000Y35930000D03*
%TD*%
D21*
%TO.C,R121*%
X22370000Y2370000D03*
X22370000Y3870000D03*
%TD*%
%TO.C,R122*%
X22370000Y5120000D03*
X22370000Y6620000D03*
%TD*%
D23*
%TO.C,R123*%
X73310000Y14180000D03*
X73310000Y12680000D03*
%TD*%
%TO.C,R124*%
X73310000Y-2070000D03*
X73310000Y-3570000D03*
%TD*%
%TO.C,R125*%
X73310000Y19680000D03*
X73310000Y18180000D03*
%TD*%
%TO.C,R126*%
X73310000Y3180000D03*
X73310000Y1680000D03*
%TD*%
%TO.C,R127*%
X73310000Y8680000D03*
X73310000Y7180000D03*
%TD*%
%TO.C,R128*%
X73310000Y25180000D03*
X73310000Y23680000D03*
%TD*%
D22*
%TO.C,R129*%
X60151031Y-27048474D03*
X58651031Y-27048474D03*
%TD*%
D21*
%TO.C,R130*%
X68810000Y16930000D03*
X68810000Y18430000D03*
%TD*%
%TO.C,R131*%
X68810000Y430000D03*
X68810000Y1930000D03*
%TD*%
D24*
%TO.C,R135*%
X95060000Y19680000D03*
X96560000Y19680000D03*
%TD*%
D22*
%TO.C,R136*%
X96560000Y18430000D03*
X95060000Y18430000D03*
%TD*%
D24*
%TO.C,R137*%
X93060000Y24430000D03*
X94560000Y24430000D03*
%TD*%
%TO.C,R138*%
X95060000Y3180000D03*
X96560000Y3180000D03*
%TD*%
D22*
%TO.C,R139*%
X96560000Y1930000D03*
X95060000Y1930000D03*
%TD*%
D24*
%TO.C,R140*%
X93060000Y7930000D03*
X94560000Y7930000D03*
%TD*%
D22*
%TO.C,R142*%
X8390000Y-48950000D03*
X6890000Y-48950000D03*
%TD*%
D25*
%TO.C,R27*%
X28641031Y-34858474D03*
X31641031Y-34858474D03*
%TD*%
%TO.C,R28*%
X33371031Y-34838474D03*
X36371031Y-34838474D03*
%TD*%
%TO.C,R32*%
X28651031Y-30128474D03*
X31651031Y-30128474D03*
%TD*%
%TO.C,R33*%
X33381031Y-30108474D03*
X36381031Y-30108474D03*
%TD*%
%TO.C,R51*%
X28661031Y-25388474D03*
X31661031Y-25388474D03*
%TD*%
%TO.C,R52*%
X33391031Y-25368474D03*
X36391031Y-25368474D03*
%TD*%
D26*
%TO.C,R77*%
X67401031Y-50448474D03*
X67401031Y-47448474D03*
%TD*%
%TO.C,R78*%
X67401031Y-45248474D03*
X67401031Y-42248474D03*
%TD*%
D27*
%TO.C,L2*%
X84801031Y-42498474D03*
X94801031Y-42498474D03*
%TD*%
D28*
%TO.C,U5*%
X75351031Y-47093474D03*
X75351031Y-48363474D03*
X75351031Y-50903474D03*
X80251031Y-50903474D03*
X80251031Y-49633474D03*
X80251031Y-48363474D03*
X80251031Y-47093474D03*
%TD*%
D29*
%TO.C,D4*%
X-500000Y14735279D03*
X-500000Y16735279D03*
%TD*%
%TO.C,D14*%
X-550000Y21710980D03*
X-550000Y23710980D03*
%TD*%
%TO.C,D15*%
X-550000Y28710980D03*
X-550000Y30710980D03*
%TD*%
D30*
%TO.C,D16*%
X49535000Y45370000D03*
X51535000Y45370000D03*
%TD*%
%TO.C,D17*%
X44285000Y45370000D03*
X46285000Y45370000D03*
%TD*%
%TO.C,D18*%
X39035000Y45370000D03*
X41035000Y45370000D03*
%TD*%
%TO.C,D19*%
X10535000Y45370000D03*
X12535000Y45370000D03*
%TD*%
%TO.C,D20*%
X21035000Y45370000D03*
X23035000Y45370000D03*
%TD*%
D24*
%TO.C,R20*%
X-1190000Y18430000D03*
X310000Y18430000D03*
%TD*%
%TO.C,R22*%
X-1190000Y25430000D03*
X310000Y25430000D03*
%TD*%
%TO.C,R74*%
X-1190000Y32430000D03*
X310000Y32430000D03*
%TD*%
D23*
%TO.C,R76*%
X48060000Y45930000D03*
X48060000Y44430000D03*
%TD*%
%TO.C,R83*%
X42810000Y45930000D03*
X42810000Y44430000D03*
%TD*%
%TO.C,R85*%
X37560000Y45930000D03*
X37560000Y44430000D03*
%TD*%
D24*
%TO.C,R120*%
X10810000Y43930000D03*
X12310000Y43930000D03*
%TD*%
%TO.C,R134*%
X21310000Y44180000D03*
X22810000Y44180000D03*
%TD*%
D21*
%TO.C,C40*%
X10890000Y-46450000D03*
X10890000Y-44950000D03*
%TD*%
%TO.C,R143*%
X87801031Y-50748474D03*
X87801031Y-49248474D03*
%TD*%
D24*
%TO.C,R146*%
X19980000Y30610000D03*
X21480000Y30610000D03*
%TD*%
D21*
%TO.C,R147*%
X70310000Y22430000D03*
X70310000Y23930000D03*
%TD*%
%TO.C,R148*%
X70310000Y5930000D03*
X70310000Y7430000D03*
%TD*%
D20*
%TO.C,D2*%
X6560000Y13680000D03*
X6560000Y17680000D03*
%TD*%
%TO.C,D3*%
X6560000Y20680000D03*
X6560000Y24680000D03*
%TD*%
%TO.C,D5*%
X6560000Y27680000D03*
X6560000Y31680000D03*
%TD*%
D31*
%TO.C,D7*%
X32510000Y26430000D03*
X32510000Y22430000D03*
%TD*%
D23*
%TO.C,C61*%
X47560000Y41680000D03*
X47560000Y40180000D03*
%TD*%
D32*
%TO.C,JP1*%
X72441031Y-15618474D03*
X73941031Y-15618474D03*
%TD*%
D33*
%TO.C,JP4*%
X13310000Y3680000D03*
X13310000Y5180000D03*
%TD*%
D34*
%TO.C,JP9*%
X40060000Y32180000D03*
X40060000Y30680000D03*
%TD*%
D14*
%TO.C,D22*%
X-190000Y44430000D03*
X3810000Y44430000D03*
%TD*%
D22*
%TO.C,C91*%
X310000Y12930000D03*
X-1190000Y12930000D03*
%TD*%
%TO.C,C94*%
X310000Y19930000D03*
X-1190000Y19930000D03*
%TD*%
%TO.C,C95*%
X310000Y26930000D03*
X-1190000Y26930000D03*
%TD*%
D24*
%TO.C,C130*%
X10810000Y42680000D03*
X12310000Y42680000D03*
%TD*%
D29*
%TO.C,D24*%
X-550000Y37710980D03*
X-550000Y39710980D03*
%TD*%
D24*
%TO.C,R149*%
X-940000Y35180000D03*
X560000Y35180000D03*
%TD*%
D21*
%TO.C,C8*%
X16310000Y5180000D03*
X16310000Y6680000D03*
%TD*%
%TO.C,C18*%
X20560000Y5180000D03*
X20560000Y6680000D03*
%TD*%
%TO.C,C50*%
X88681031Y-27458474D03*
X88681031Y-25958474D03*
%TD*%
D24*
%TO.C,C136*%
X19980000Y29380000D03*
X21480000Y29380000D03*
%TD*%
D35*
%TO.C,D1*%
X94001031Y-20468474D03*
X94001031Y-22468474D03*
%TD*%
D29*
%TO.C,D8*%
X-490000Y-47360000D03*
X-490000Y-45360000D03*
%TD*%
D36*
%TO.C,C4*%
X91301031Y-27308474D03*
X91301031Y-25308474D03*
%TD*%
%TO.C,C35*%
X92991031Y-27308474D03*
X92991031Y-25308474D03*
%TD*%
D37*
%TO.C,C51*%
X84551031Y-47748474D03*
X82551031Y-47748474D03*
%TD*%
D38*
%TO.C,C68*%
X93861031Y-37448474D03*
X95861031Y-37448474D03*
%TD*%
D39*
%TO.C,C69*%
X90437697Y-34868474D03*
X90437697Y-36868474D03*
%TD*%
D38*
%TO.C,C110*%
X19630000Y26710000D03*
X21630000Y26710000D03*
%TD*%
D36*
%TO.C,C131*%
X19060000Y5180000D03*
X19060000Y7180000D03*
%TD*%
D38*
%TO.C,C132*%
X19630000Y24960000D03*
X21630000Y24960000D03*
%TD*%
D22*
%TO.C,R118*%
X70301031Y-27748474D03*
X68801031Y-27748474D03*
%TD*%
%TO.C,R153*%
X33310000Y15430000D03*
X31810000Y15430000D03*
%TD*%
D40*
%TO.C,R80*%
X23251031Y-11348474D03*
X17751031Y-11348474D03*
%TD*%
%TO.C,R81*%
X23251031Y-15848474D03*
X17751031Y-15848474D03*
%TD*%
%TO.C,R82*%
X23301031Y-20598474D03*
X17801031Y-20598474D03*
%TD*%
D41*
%TO.C,U1*%
X58010000Y28880000D03*
X57060000Y28880000D03*
X56110000Y28880000D03*
X56110000Y26480000D03*
X57060000Y26480000D03*
X58010000Y26480000D03*
%TD*%
D42*
%TO.C,U20*%
X44360000Y39230000D03*
X45310000Y39230000D03*
X46260000Y39230000D03*
X46260000Y41630000D03*
X45310000Y41630000D03*
X44360000Y41630000D03*
%TD*%
D41*
%TO.C,U21*%
X80251031Y-13168474D03*
X79301031Y-13168474D03*
X78351031Y-13168474D03*
X78351031Y-15568474D03*
X79301031Y-15568474D03*
X80251031Y-15568474D03*
%TD*%
D42*
%TO.C,U22*%
X39360000Y39230000D03*
X40310000Y39230000D03*
X41260000Y39230000D03*
X41260000Y41630000D03*
X40310000Y41630000D03*
X39360000Y41630000D03*
%TD*%
D43*
%TO.C,U23*%
X27760000Y8230000D03*
X27760000Y9180000D03*
X27760000Y10130000D03*
X25360000Y10130000D03*
X25360000Y9180000D03*
X25360000Y8230000D03*
%TD*%
D41*
%TO.C,U29*%
X85151031Y-15418474D03*
X84201031Y-15418474D03*
X83251031Y-15418474D03*
X83251031Y-17818474D03*
X84201031Y-17818474D03*
X85151031Y-17818474D03*
%TD*%
D39*
%TO.C,C14*%
X60367697Y-15348474D03*
X60367697Y-17348474D03*
%TD*%
D23*
%TO.C,C138*%
X10890000Y-47560000D03*
X10890000Y-49060000D03*
%TD*%
%TO.C,C62*%
X11560000Y9420000D03*
X11560000Y7920000D03*
%TD*%
D21*
%TO.C,C139*%
X21810000Y34680000D03*
X21810000Y36180000D03*
%TD*%
%TO.C,C140*%
X20560000Y34680000D03*
X20560000Y36180000D03*
%TD*%
%TO.C,C142*%
X19310000Y34680000D03*
X19310000Y36180000D03*
%TD*%
D44*
%TO.C,Q1*%
X9360000Y15742500D03*
X11260000Y15742500D03*
X10310000Y17617500D03*
%TD*%
%TO.C,Q2*%
X9360000Y22742500D03*
X11260000Y22742500D03*
X10310000Y24617500D03*
%TD*%
%TO.C,Q3*%
X9360000Y29742500D03*
X11260000Y29742500D03*
X10310000Y31617500D03*
%TD*%
D45*
%TO.C,Q4*%
X35260000Y30617500D03*
X33360000Y30617500D03*
X34310000Y28742500D03*
%TD*%
D21*
%TO.C,C144*%
X23060000Y34680000D03*
X23060000Y36180000D03*
%TD*%
%TO.C,R154*%
X16810000Y34680000D03*
X16810000Y36180000D03*
%TD*%
D23*
%TO.C,R155*%
X5060000Y35680000D03*
X5060000Y34180000D03*
%TD*%
%TO.C,R156*%
X8860000Y35670000D03*
X8860000Y34170000D03*
%TD*%
%TO.C,R157*%
X6310000Y35680000D03*
X6310000Y34180000D03*
%TD*%
%TO.C,R158*%
X7560000Y35680000D03*
X7560000Y34180000D03*
%TD*%
D22*
%TO.C,R159*%
X12940000Y10660000D03*
X11440000Y10660000D03*
%TD*%
D21*
%TO.C,R160*%
X18060000Y34680000D03*
X18060000Y36180000D03*
%TD*%
D39*
%TO.C,C97*%
X92151031Y-34868474D03*
X92151031Y-36868474D03*
%TD*%
D21*
%TO.C,R161*%
X62051031Y-17348474D03*
X62051031Y-15848474D03*
%TD*%
D22*
%TO.C,R162*%
X60151031Y-25448474D03*
X58651031Y-25448474D03*
%TD*%
D46*
%TO.C,P1*%
X63760000Y40440000D03*
X62960000Y40440000D03*
D47*
X61810000Y40440000D03*
X60810000Y40440000D03*
X60310000Y40440000D03*
X59310000Y40440000D03*
D46*
X58160000Y40440000D03*
X57360000Y40440000D03*
X57360000Y40440000D03*
X58160000Y40440000D03*
D47*
X58810000Y40440000D03*
X59810000Y40440000D03*
X61310000Y40440000D03*
X62310000Y40440000D03*
D46*
X62960000Y40440000D03*
X63760000Y40440000D03*
D48*
X64880000Y41015000D03*
D49*
X64880000Y45195000D03*
D48*
X56240000Y41015000D03*
D49*
X56240000Y45195000D03*
%TD*%
D24*
%TO.C,C147*%
X83051031Y-29748474D03*
X84551031Y-29748474D03*
%TD*%
D50*
%TO.C,C3*%
X71301031Y-50498474D03*
X71301031Y-46498474D03*
%TD*%
D51*
%TO.C,D10*%
X82224286Y-39285220D03*
X85052714Y-36456792D03*
%TD*%
D21*
%TO.C,C141*%
X70301031Y-31998474D03*
X70301031Y-30498474D03*
%TD*%
D52*
%TO.C,U25*%
X72201031Y-24998474D03*
X72201031Y-25498474D03*
X72201031Y-25998474D03*
X72201031Y-26498474D03*
X72201031Y-26998474D03*
X72201031Y-27498474D03*
X72201031Y-27998474D03*
X72201031Y-28498474D03*
X72201031Y-28998474D03*
X72201031Y-29498474D03*
X72201031Y-29998474D03*
X72201031Y-30498474D03*
D53*
X73801031Y-32098474D03*
X74301031Y-32098474D03*
X74801031Y-32098474D03*
X75301031Y-32098474D03*
X75801031Y-32098474D03*
X76301031Y-32098474D03*
X76801031Y-32098474D03*
X77301031Y-32098474D03*
X77801031Y-32098474D03*
X78301031Y-32098474D03*
X78801031Y-32098474D03*
X79301031Y-32098474D03*
D52*
X80901031Y-30498474D03*
X80901031Y-29998474D03*
X80901031Y-29498474D03*
X80901031Y-28998474D03*
X80901031Y-28498474D03*
X80901031Y-27998474D03*
X80901031Y-27498474D03*
X80901031Y-26998474D03*
X80901031Y-26498474D03*
X80901031Y-25998474D03*
X80901031Y-25498474D03*
X80901031Y-24998474D03*
D53*
X79301031Y-23398474D03*
X78801031Y-23398474D03*
X78301031Y-23398474D03*
X77801031Y-23398474D03*
X77301031Y-23398474D03*
X76801031Y-23398474D03*
X76301031Y-23398474D03*
X75801031Y-23398474D03*
X75301031Y-23398474D03*
X74801031Y-23398474D03*
X74301031Y-23398474D03*
X73801031Y-23398474D03*
%TD*%
D54*
%TO.C,U26*%
X35410000Y21680000D03*
X35410000Y21180000D03*
X35410000Y20680000D03*
X35410000Y20180000D03*
X35410000Y19680000D03*
X35410000Y19180000D03*
X35410000Y18680000D03*
X35410000Y18180000D03*
X35410000Y17680000D03*
X35410000Y17180000D03*
X35410000Y16680000D03*
X35410000Y16180000D03*
X35410000Y15680000D03*
X35410000Y15180000D03*
X35410000Y14680000D03*
X35410000Y14180000D03*
X35410000Y13680000D03*
X35410000Y13180000D03*
X35410000Y12680000D03*
X35410000Y12180000D03*
X35410000Y11680000D03*
X35410000Y11180000D03*
X35410000Y10680000D03*
X35410000Y10180000D03*
X35410000Y9680000D03*
D55*
X37310000Y7780000D03*
X37810000Y7780000D03*
X38310000Y7780000D03*
X38810000Y7780000D03*
X39310000Y7780000D03*
X39810000Y7780000D03*
X40310000Y7780000D03*
X40810000Y7780000D03*
X41310000Y7780000D03*
X41810000Y7780000D03*
X42310000Y7780000D03*
X42810000Y7780000D03*
X43310000Y7780000D03*
X43810000Y7780000D03*
X44310000Y7780000D03*
X44810000Y7780000D03*
X45310000Y7780000D03*
X45810000Y7780000D03*
X46310000Y7780000D03*
X46810000Y7780000D03*
X47310000Y7780000D03*
X47810000Y7780000D03*
X48310000Y7780000D03*
X48810000Y7780000D03*
X49310000Y7780000D03*
D54*
X51210000Y9680000D03*
X51210000Y10180000D03*
X51210000Y10680000D03*
X51210000Y11180000D03*
X51210000Y11680000D03*
X51210000Y12180000D03*
X51210000Y12680000D03*
X51210000Y13180000D03*
X51210000Y13680000D03*
X51210000Y14180000D03*
X51210000Y14680000D03*
X51210000Y15180000D03*
X51210000Y15680000D03*
X51210000Y16180000D03*
X51210000Y16680000D03*
X51210000Y17180000D03*
X51210000Y17680000D03*
X51210000Y18180000D03*
X51210000Y18680000D03*
X51210000Y19180000D03*
X51210000Y19680000D03*
X51210000Y20180000D03*
X51210000Y20680000D03*
X51210000Y21180000D03*
X51210000Y21680000D03*
D55*
X49310000Y23580000D03*
X48810000Y23580000D03*
X48310000Y23580000D03*
X47810000Y23580000D03*
X47310000Y23580000D03*
X46810000Y23580000D03*
X46310000Y23580000D03*
X45810000Y23580000D03*
X45310000Y23580000D03*
X44810000Y23580000D03*
X44310000Y23580000D03*
X43810000Y23580000D03*
X43310000Y23580000D03*
X42810000Y23580000D03*
X42310000Y23580000D03*
X41810000Y23580000D03*
X41310000Y23580000D03*
X40810000Y23580000D03*
X40310000Y23580000D03*
X39810000Y23580000D03*
X39310000Y23580000D03*
X38810000Y23580000D03*
X38310000Y23580000D03*
X37810000Y23580000D03*
X37310000Y23580000D03*
%TD*%
D39*
%TO.C,C70*%
X88724364Y-34868474D03*
X88724364Y-36868474D03*
%TD*%
D38*
%TO.C,C145*%
X93861031Y-35518474D03*
X95861031Y-35518474D03*
%TD*%
D56*
%TO.C,Q5*%
X8030000Y-46340000D03*
X8030000Y-44440000D03*
X6155000Y-45390000D03*
%TD*%
D23*
%TO.C,R164*%
X9640000Y-44950000D03*
X9640000Y-46450000D03*
%TD*%
D24*
%TO.C,R141*%
X6890000Y-47700000D03*
X8390000Y-47700000D03*
%TD*%
D23*
%TO.C,R165*%
X12140000Y-44950000D03*
X12140000Y-46450000D03*
%TD*%
D21*
%TO.C,R163*%
X13390000Y-46450000D03*
X13390000Y-44950000D03*
%TD*%
D22*
%TO.C,R166*%
X7810000Y-42570000D03*
X6310000Y-42570000D03*
%TD*%
%TO.C,R167*%
X5130000Y-42540000D03*
X3630000Y-42540000D03*
%TD*%
D57*
%TO.C,P11*%
X88200000Y-17470000D03*
X88200000Y-16670000D03*
D58*
X88200000Y-15520000D03*
X88200000Y-14520000D03*
X88200000Y-14020000D03*
X88200000Y-13020000D03*
D57*
X88200000Y-11870000D03*
X88200000Y-11070000D03*
X88200000Y-11070000D03*
X88200000Y-11870000D03*
D58*
X88200000Y-12520000D03*
X88200000Y-13520000D03*
X88200000Y-15020000D03*
X88200000Y-16020000D03*
D57*
X88200000Y-16670000D03*
X88200000Y-17470000D03*
D59*
X88775000Y-18590000D03*
D60*
X92955000Y-18590000D03*
D59*
X88775000Y-9950000D03*
D60*
X92955000Y-9950000D03*
%TD*%
D24*
%TO.C,C135*%
X20227500Y16745000D03*
X21727500Y16745000D03*
%TD*%
D22*
%TO.C,R174*%
X86251031Y-11268474D03*
X84751031Y-11268474D03*
%TD*%
D24*
%TO.C,C21*%
X56051031Y-19048474D03*
X57551031Y-19048474D03*
%TD*%
D22*
%TO.C,C105*%
X17537500Y15375000D03*
X16037500Y15375000D03*
%TD*%
%TO.C,R170*%
X60151031Y-20648474D03*
X58651031Y-20648474D03*
%TD*%
%TO.C,C120*%
X7490000Y10720000D03*
X5990000Y10720000D03*
%TD*%
D21*
%TO.C,R177*%
X58360000Y36680000D03*
X58360000Y38180000D03*
%TD*%
%TO.C,R132*%
X10290000Y7920000D03*
X10290000Y9420000D03*
%TD*%
D38*
%TO.C,C111*%
X19877500Y14075000D03*
X21877500Y14075000D03*
%TD*%
D23*
%TO.C,C122*%
X5860000Y5320000D03*
X5860000Y3820000D03*
%TD*%
D24*
%TO.C,R173*%
X84750000Y-9990000D03*
X86250000Y-9990000D03*
%TD*%
D23*
%TO.C,C103*%
X14827500Y17145000D03*
X14827500Y15645000D03*
%TD*%
D22*
%TO.C,R1*%
X54910000Y45230000D03*
X53410000Y45230000D03*
%TD*%
D24*
%TO.C,C149*%
X56051031Y-25448474D03*
X57551031Y-25448474D03*
%TD*%
%TO.C,C22*%
X56051031Y-20648474D03*
X57551031Y-20648474D03*
%TD*%
D39*
%TO.C,C123*%
X2670000Y5670000D03*
X2670000Y3670000D03*
%TD*%
D21*
%TO.C,R172*%
X86270000Y-17610000D03*
X86270000Y-16110000D03*
%TD*%
D23*
%TO.C,C134*%
X7090000Y5320000D03*
X7090000Y3820000D03*
%TD*%
D24*
%TO.C,C150*%
X56051031Y-27048474D03*
X57551031Y-27048474D03*
%TD*%
D23*
%TO.C,R144*%
X8320000Y5320000D03*
X8320000Y3820000D03*
%TD*%
D24*
%TO.C,C148*%
X56051031Y-23898474D03*
X57551031Y-23898474D03*
%TD*%
D22*
%TO.C,R35*%
X17577500Y19945000D03*
X16077500Y19945000D03*
%TD*%
%TO.C,R60*%
X21720000Y19200000D03*
X20220000Y19200000D03*
%TD*%
%TO.C,R169*%
X60151031Y-22248474D03*
X58651031Y-22248474D03*
%TD*%
%TO.C,C1*%
X54910000Y43930000D03*
X53410000Y43930000D03*
%TD*%
D14*
%TO.C,D9*%
X16127500Y9775000D03*
X20127500Y9775000D03*
%TD*%
D43*
%TO.C,U24*%
X18342500Y29415000D03*
X18342500Y30365000D03*
X18342500Y31315000D03*
X15942500Y31315000D03*
X15942500Y30365000D03*
X15942500Y29415000D03*
%TD*%
%TO.C,U13*%
X18590000Y16780000D03*
X18590000Y17730000D03*
X18590000Y18680000D03*
X16190000Y18680000D03*
X16190000Y17730000D03*
X16190000Y16780000D03*
%TD*%
D21*
%TO.C,R152*%
X62360000Y36780000D03*
X62360000Y38280000D03*
%TD*%
D24*
%TO.C,C146*%
X56051031Y-22248474D03*
X57551031Y-22248474D03*
%TD*%
D42*
%TO.C,U28*%
X7125000Y6957500D03*
X8075000Y6957500D03*
X9025000Y6957500D03*
X9025000Y9357500D03*
X8075000Y9357500D03*
X7125000Y9357500D03*
%TD*%
D61*
%TO.C,L12*%
X3460000Y10302500D03*
X3460000Y7902500D03*
%TD*%
D21*
%TO.C,C121*%
X5720000Y8010000D03*
X5720000Y9510000D03*
%TD*%
D22*
%TO.C,R168*%
X60151031Y-23898474D03*
X58651031Y-23898474D03*
%TD*%
D21*
%TO.C,R133*%
X10260000Y5430000D03*
X10260000Y6930000D03*
%TD*%
D39*
%TO.C,C124*%
X4420000Y5670000D03*
X4420000Y3670000D03*
%TD*%
D38*
%TO.C,C109*%
X19877500Y12325000D03*
X21877500Y12325000D03*
%TD*%
D24*
%TO.C,C107*%
X20227500Y15515000D03*
X21727500Y15515000D03*
%TD*%
%TO.C,R175*%
X84751031Y-12568474D03*
X86251031Y-12568474D03*
%TD*%
D31*
%TO.C,D13*%
X120000Y9420000D03*
X120000Y5420000D03*
%TD*%
D24*
%TO.C,C500*%
X56051031Y-14298474D03*
X57551031Y-14298474D03*
%TD*%
D21*
%TO.C,C137*%
X14827500Y18315000D03*
X14827500Y19815000D03*
%TD*%
D41*
%TO.C,U4*%
X87836031Y-31105974D03*
X86886031Y-31105974D03*
X85936031Y-31105974D03*
X85936031Y-33505974D03*
X86886031Y-33505974D03*
X87836031Y-33505974D03*
%TD*%
D24*
%TO.C,C133*%
X8715000Y10720000D03*
X10215000Y10720000D03*
%TD*%
D22*
%TO.C,R171*%
X60151031Y-19048474D03*
X58651031Y-19048474D03*
%TD*%
D19*
%TO.C,L5*%
X15245000Y13115000D03*
X17645000Y13115000D03*
%TD*%
D24*
%TO.C,R145*%
X20227500Y17975000D03*
X21727500Y17975000D03*
%TD*%
%TO.C,R176*%
X84751031Y-13868474D03*
X86251031Y-13868474D03*
%TD*%
M02*
